<?xml version="1.0" encoding="utf-8"?>
<!-- Generator: Adobe Illustrator 17.0.0, SVG Export Plug-In . SVG Version: 6.00 Build 0)  -->
<!DOCTYPE svg PUBLIC "-//W3C//DTD SVG 1.1//EN" "http://www.w3.org/Graphics/SVG/1.1/DTD/svg11.dtd">
<svg version="1.1" id="Layer_1" xmlns="http://www.w3.org/2000/svg" xmlns:xlink="http://www.w3.org/1999/xlink" x="0px" y="0px"
	 width="730px" height="254.73px" viewBox="0 0 730 254.73" enable-background="new 0 0 730 254.73" xml:space="preserve">
<g>
	<path fill="#FFFFFF" d="M728.993,147.668c-0.806,5.015-1.381,10.079-2.456,15.036c-7.066,32.589-28.204,51.014-59.762,58.476
		c-9.484,2.242-19.227,3.389-29.281,5.111c-2-11.076-3.826-21.184-5.736-31.762c24.466-2.853,49.121-5.336,63.474-30.927
		c-8.112-0.039-15.385,0.444-22.557-0.204c-24.354-2.201-37.339-16.851-37.036-41.403c0.194-15.684,5.213-29.794,15.053-41.958
		c15.19-18.78,42.502-19.294,58.582-1.24c11.214,12.589,15.314,28.135,17.81,44.262c0.802,5.18,1.31,10.405,1.953,15.61
		C729.022,141.668,729.007,144.668,728.993,147.668z M696.87,130.832c-1.251-9.963-2.875-19.409-8.604-27.515
		c-5.108-7.227-13.363-6.825-16.979,1.159c-2.355,5.2-3.679,10.967-4.749,16.616c-0.817,4.312,1.217,7.775,5.673,9.304
		C680.295,133.17,688.398,132.767,696.87,130.832z"/>
	<path fill="#E5CE8A" d="M2,112.432c3.645-18.196,13.204-33.123,26.022-46.398c-2.154-1.94-4.098-3.692-6.44-5.801
		c5.89-7.902,11.701-15.699,17.649-23.68c19.734,13.861,37.888,28.824,51.424,48.643c6.081,8.904,10.352,18.62,11.222,29.506
		c1.645,20.575-9.135,37.871-28.8,44.641c-16.646,5.731-33.401,5.179-49.405-2.879c-11.455-5.768-18.127-15.281-20.674-27.782
		c-0.225-1.105-0.66-2.168-0.998-3.25C2,121.099,2,116.766,2,112.432z M50.591,88.692c-7.042,7.069-13.998,13.762-16.952,23.366
		c-3.172,10.313,1.336,17.288,11.93,18.273c4.125,0.384,8.348,0.386,12.471-0.008c11.911-1.139,16.69-9.901,11.26-20.663
		C65.012,101.162,58.065,94.962,50.591,88.692z"/>
	<path fill="#E5CE8A" d="M271,1.432c7.369,6.668,14.739,13.337,21.904,19.82c-8.381,8.311-15.216,15.089-21.704,21.522
		c-6.701-6.723-13.584-13.627-20.598-20.664C256.694,15.617,263.347,8.525,270,1.432C270.333,1.432,270.667,1.432,271,1.432z"/>
	<path fill="#E5CE8A" d="M257.061,97.022c9.756-4.656,19.18-9.153,29.161-13.916c2.629,5.769,5.147,11.298,7.668,16.825
		c3.037,6.66,5.901,13.406,9.163,19.953c3.643,7.31,9.293,11.465,17.984,10.771c7.285-0.582,14.695-0.089,21.895-1.139
		c10.784-1.572,14.414-6.234,15.046-17.127c0.82-14.131-1.715-27.853-4.984-41.49c-0.301-1.254-0.547-2.521-0.896-4.144
		c10.217-1.851,20.162-3.653,31.267-5.665c1.719,8.221,4.285,16.201,4.88,24.326c0.92,12.557,1.626,25.326,0.372,37.8
		c-1.87,18.601-12.421,31.304-30.786,36.448c-18.275,5.119-36.755,5.085-55.833,1.334c-10.223,45.543-43.907,60.682-86.86,64.5
		c-1.882-10.477-3.738-20.813-5.507-30.659c10.235-2.267,20-3.671,29.265-6.637c21.271-6.81,33.53-22.666,33.588-42.207
		c0.033-11.146-2.419-21.817-6.929-31.964C263.067,108.433,260.092,103.05,257.061,97.022z"/>
	<path fill="#E5CE8A" d="M117.555,226.087c-2.086-11.506-3.916-21.602-5.814-32.071c19.705-1.893,38.8-4.266,53.758-18.119
		c3.534-3.272,6.068-7.624,9.062-11.479c-0.279-0.557-0.558-1.114-0.837-1.67c-7.739,0-15.602,0.895-23.193-0.164
		c-24.778-3.457-36.737-18.403-35.335-43.378c0.834-14.857,5.678-28.346,15.166-39.919c15.192-18.531,42.76-18.92,58.635-0.861
		c10.387,11.816,14.707,26.261,17.25,41.359c2.938,17.443,3.22,34.881-2.475,51.848c-8.959,26.689-28.464,41.891-55.071,48.555
		C138.612,222.714,128.238,224.1,117.555,226.087z M176.53,130.295c-1.43-10.225-2.957-19.905-9.137-28.02
		c-4.698-6.169-12.508-6.388-15.617,0.131c-2.868,6.012-4.288,12.819-5.615,19.422c-0.76,3.782,1.709,6.663,5.458,7.951
		C159.736,132.568,167.89,131.976,176.53,130.295z"/>
	<path fill="#FFFFFF" d="M584.615,67.253c10.621-1.878,20.56-3.636,31.53-5.576c1.886,10.134,4.454,19.662,5.246,29.335
		c0.865,10.554,1.161,21.382-0.196,31.843c-3.002,23.134-16.001,35.737-39.185,39.44c-6.224,0.994-12.585,1.548-18.886,1.566
		c-45.663,0.129-91.326,0.083-136.988,0.06c-11.189-0.006-16.723-5.185-16.966-15.703c-0.263-11.379,5.087-16.931,16.566-16.939
		c46.163-0.033,92.326,0.042,138.488-0.095c4.941-0.015,9.98-0.73,14.796-1.87c6.948-1.644,10.18-5.958,11.04-13.11
		c1.802-14.989-1.122-29.496-4.377-43.976C585.362,70.802,585.069,69.371,584.615,67.253z"/>
	<path fill="#E5CE8A" d="M333.059,219.408c-7.548-7.545-14.348-14.343-20.723-20.715c6.652-6.664,13.524-13.548,20.791-20.828
		c5.781,6.138,12.21,12.964,19.163,20.347c7.241-7.725,13.578-14.485,19.621-20.931c7.524,7.562,14.379,14.452,21.345,21.454
		c-6.664,6.227-13.808,12.903-21.134,19.748c-5.766-5.973-12.302-12.746-19.084-19.772
		C345.842,206.165,339.387,212.853,333.059,219.408z"/>
	<path fill="#E5CE8A" d="M311.548,58.106c-6.614,6.614-13.519,13.517-20.724,20.722c-6.228-6.32-12.753-12.943-19.869-20.165
		c-6.537,7.078-12.822,13.883-18.809,20.365c-7.717-7.778-14.588-14.703-21.247-21.415c6.242-6.238,13.053-13.046,19.925-19.914
		c6.149,6.3,12.61,12.92,19.573,20.054c7.336-7.643,13.849-14.43,19.941-20.777C297.984,44.594,304.904,51.488,311.548,58.106z"/>
	<path fill="#FFFFFF" d="M497.133,203.722c6.651-6.672,13.87-13.913,20.802-20.868c6.922,6.987,14.125,14.257,21.031,21.227
		c-6.628,6.666-13.829,13.909-20.709,20.829C511.268,217.9,504.035,210.645,497.133,203.722z"/>
	<path fill="#E5CE8A" d="M372.209,233.66c-6.523,6.507-13.422,13.39-20.261,20.211c-6.55-6.447-13.398-13.188-19.793-19.483
		c7.04-7.001,13.938-13.861,20.445-20.333C358.586,220.041,365.455,226.908,372.209,233.66z"/>
</g>
</svg>
